<svg xmlns="http://www.w3.org/2000/svg" viewBox="0 0 161.61 42.52"><defs><style>.cls-1{fill:#d61f39;}.cls-2{fill:#58b5e0;}.cls-3{fill:#595a5a;}.cls-4{fill:#adadad;}</style></defs><title>logo-mai-warna</title><g id="Layer_2" data-name="Layer 2"><g id="Layer_1-2" data-name="Layer 1"><polygon class="cls-1" points="21.92 18.43 19.82 22.1 21.92 25.76 24.02 22.1 21.92 18.43"/><polygon class="cls-2" points="17.88 37.2 19.59 34.01 19.71 30.36 17.96 33.56 17.88 37.2"/><polygon class="cls-2" points="24.13 13.85 25.85 10.64 25.96 6.99 24.24 10.21 24.13 13.85"/><polygon class="cls-2" points="14.1 35.66 16.6 33 17.65 29.49 15.15 32.15 14.1 35.66"/><polygon class="cls-2" points="26.19 14.7 28.69 12.04 29.74 8.56 27.24 11.22 26.19 14.7"/><polygon class="cls-2" points="10.86 33.16 13.96 31.26 15.89 28.15 12.78 30.05 10.86 33.16"/><polygon class="cls-2" points="27.95 16.07 31.06 14.14 32.98 11.04 29.87 12.96 27.95 16.07"/><polygon class="cls-2" points="8.38 29.92 11.86 28.87 14.52 26.37 11.02 27.42 8.38 29.92"/><polygon class="cls-2" points="29.32 17.83 32.8 16.78 35.46 14.28 31.97 15.33 29.32 17.83"/><polygon class="cls-2" points="6.82 26.16 10.46 26.05 13.67 24.31 10.01 24.42 6.82 26.16"/><polygon class="cls-2" points="30.16 19.89 33.81 19.8 37.02 18.05 33.38 18.16 30.16 19.89"/><polygon class="cls-2" points="6.28 22.1 9.83 22.95 13.36 22.1 9.83 21.27 6.28 22.1"/><polygon class="cls-2" points="30.45 22.1 34.01 22.95 37.56 22.1 34.01 21.27 30.45 22.1"/><polygon class="cls-2" points="6.82 18.05 10.01 19.8 13.65 19.89 10.46 18.16 6.82 18.05"/><polygon class="cls-2" points="30.16 24.31 33.38 26.05 37.02 26.16 33.81 24.42 30.16 24.31"/><polygon class="cls-2" points="8.36 14.28 11.02 16.78 14.52 17.83 11.86 15.33 8.36 14.28"/><polygon class="cls-2" points="29.32 26.39 31.97 28.89 35.46 29.92 32.8 27.42 29.32 26.39"/><polygon class="cls-2" points="10.86 11.04 12.76 14.14 15.86 16.07 13.96 12.96 10.86 11.04"/><polygon class="cls-2" points="27.95 28.15 29.87 31.26 32.98 33.16 31.06 30.05 27.95 28.15"/><polygon class="cls-2" points="14.1 8.56 15.15 12.04 17.65 14.7 16.6 11.22 14.1 8.56"/><polygon class="cls-2" points="26.19 29.49 27.24 33 29.74 35.66 28.69 32.15 26.19 29.49"/><polygon class="cls-2" points="17.88 6.99 17.96 10.64 19.71 13.85 19.59 10.21 17.88 6.99"/><polygon class="cls-2" points="24.13 30.36 24.24 34.01 25.96 37.23 25.85 33.56 24.13 30.36"/><polygon class="cls-2" points="21.92 6.46 21.07 10.01 21.92 13.56 22.75 10.01 21.92 6.46"/><polygon class="cls-2" points="21.92 30.66 21.07 34.21 21.92 37.74 22.75 34.21 21.92 30.66"/><polygon class="cls-2" points="30.27 7.62 32.04 5.54 32.96 2.97 31.19 5.05 30.27 7.62"/><polygon class="cls-2" points="36.4 13.74 38.97 12.82 41.05 11.06 38.5 11.98 36.4 13.74"/><polygon class="cls-2" points="2.77 11.06 4.85 12.82 7.42 13.74 5.34 11.98 2.77 11.06"/><polygon class="cls-2" points="10.86 2.97 11.78 5.54 13.54 7.62 12.62 5.05 10.86 2.97"/><polygon class="cls-2" points="21.92 0 21.43 2.68 21.92 5.36 22.41 2.68 21.92 0"/><polygon class="cls-2" points="13.45 42.52 14.93 40.22 15.51 37.56 14.03 39.86 13.45 42.52"/><polygon class="cls-2" points="4.38 35.55 6.82 34.32 8.65 32.29 6.21 33.54 4.38 35.55"/><polygon class="cls-2" points="0 24.98 2.73 25.11 5.32 24.29 2.59 24.15 0 24.98"/><polygon class="cls-2" points="38.5 24.29 41.11 25.11 43.84 24.98 41.22 24.15 38.5 24.29"/><polygon class="cls-2" points="35.19 32.29 37.02 34.32 39.46 35.55 37.63 33.54 35.19 32.29"/><polygon class="cls-2" points="28.31 37.56 28.89 40.24 30.36 42.52 29.78 39.86 28.31 37.56"/><polygon class="cls-3" points="54.09 10.9 55.61 10.9 59.59 20.04 63.55 10.9 65 10.9 65 21.81 63.99 21.81 63.99 12.2 63.95 12.2 59.79 21.81 59.34 21.81 55.14 12.2 55.1 12.2 55.1 21.81 54.09 21.81 54.09 10.9"/><rect class="cls-3" x="69.04" y="10.9" width="1.01" height="10.9"/><path class="cls-3" d="M74.47,19.8a2.77,2.77,0,0,0,1,1,3,3,0,0,0,1.45.34,2.73,2.73,0,0,0,1-.16,3,3,0,0,0,.79-.42,3,3,0,0,0,.51-.67,2,2,0,0,0,.2-.9,1.73,1.73,0,0,0-.24-.93,1.91,1.91,0,0,0-.65-.61,5,5,0,0,0-.9-.4l-1-.33a8.5,8.5,0,0,1-1-.41,2.81,2.81,0,0,1-.92-.56,2.16,2.16,0,0,1-.62-.87,3,3,0,0,1-.25-1.27,2.74,2.74,0,0,1,.29-1.3,2.58,2.58,0,0,1,.76-.93A3.86,3.86,0,0,1,76,10.81a5.29,5.29,0,0,1,1.34-.17A4,4,0,0,1,79,11,3.08,3.08,0,0,1,80.26,12l-.87.62a2.44,2.44,0,0,0-2.13-1.07,3.12,3.12,0,0,0-.93.14,2.76,2.76,0,0,0-.79.38,1.79,1.79,0,0,0-.51.64,2,2,0,0,0-.2.92,1.81,1.81,0,0,0,.4,1.25,3.25,3.25,0,0,0,1,.69,11.66,11.66,0,0,0,1.34.45,5.54,5.54,0,0,1,1.36.51,2.72,2.72,0,0,1,1,.9A2.56,2.56,0,0,1,80.44,19a3.05,3.05,0,0,1-.27,1.32,3.14,3.14,0,0,1-.76,1,3.35,3.35,0,0,1-1.07.58,4.11,4.11,0,0,1-1.3.21,4.94,4.94,0,0,1-2-.38,3.53,3.53,0,0,1-1.56-1.28Z"/><polygon class="cls-3" points="83.9 10.9 84.91 10.9 84.91 15.71 85.02 15.71 90.29 10.9 91.7 10.9 86.18 15.89 91.99 21.81 90.54 21.81 85.02 16.18 84.91 16.18 84.91 21.81 83.9 21.81 83.9 10.9"/><polygon class="cls-3" points="107.52 11.84 103.81 11.84 103.81 10.9 112.28 10.9 112.28 11.84 108.55 11.84 108.55 21.81 107.52 21.81 107.52 11.84"/><polygon class="cls-3" points="98.85 10.9 97.8 10.9 93.04 21.81 94.11 21.81 95.34 18.9 98.6 18.9 98.6 17.99 95.74 17.99 98.27 12.02 102.29 21.81 103.43 21.81 98.85 10.9"/><polygon class="cls-3" points="130.26 10.9 131.27 10.9 131.27 20.89 136.34 20.89 136.34 21.81 130.26 21.81 130.26 10.9"/><polygon class="cls-3" points="150.69 10.9 152.23 10.9 156.18 20.04 160.16 10.9 161.61 10.9 161.61 21.81 160.58 21.81 160.58 12.2 160.56 12.2 156.41 21.81 155.96 21.81 151.74 12.2 151.71 12.2 151.71 21.81 150.69 21.81 150.69 10.9"/><polygon class="cls-3" points="122.93 10.9 121.91 10.9 117.15 21.81 118.2 21.81 119.45 18.9 122.71 18.9 122.71 17.99 119.83 17.99 122.38 12.02 126.4 21.81 127.54 21.81 122.93 10.9"/><polygon class="cls-3" points="143.49 10.9 142.44 10.9 137.68 21.81 138.75 21.81 139.98 18.9 143.24 18.9 143.24 17.99 140.38 17.99 142.91 12.02 146.93 21.81 148.07 21.81 143.49 10.9"/><polygon class="cls-4" points="54.09 28.29 57.85 28.29 57.85 29 54.85 29 54.85 30.68 57.85 30.68 57.85 31.39 54.85 31.39 54.85 33.18 57.85 33.18 57.85 33.9 54.09 33.9 54.09 28.29"/><polygon class="cls-4" points="59.72 28.29 60.62 28.29 62.25 32.84 62.27 32.84 63.97 28.29 64.8 28.29 62.61 33.9 61.89 33.9 59.72 28.29"/><polygon class="cls-4" points="67.05 28.29 70.81 28.29 70.81 29 67.81 29 67.81 30.68 70.81 30.68 70.81 31.39 67.81 31.39 67.81 33.18 70.81 33.18 70.81 33.9 67.05 33.9 67.05 28.29"/><polygon class="cls-4" points="73.47 28.29 74.45 28.29 77.53 32.89 77.55 32.89 77.55 28.29 78.31 28.29 78.31 33.9 77.35 33.9 74.22 29.29 74.22 29.29 74.22 33.9 73.47 33.9 73.47 28.29"/><polygon class="cls-4" points="82.49 29 80.7 29 80.7 28.29 85.06 28.29 85.06 29 83.25 29 83.25 33.9 82.49 33.9 82.49 29"/><path class="cls-4" d="M93.8,34a3.07,3.07,0,0,1-1.19-.22,2.7,2.7,0,0,1-.91-.63,2.51,2.51,0,0,1-.61-.94,3.12,3.12,0,0,1,0-2.3A2.68,2.68,0,0,1,91.7,29a2.54,2.54,0,0,1,.91-.62,2.9,2.9,0,0,1,1.19-.23,2.8,2.8,0,0,1,1.16.23,2.85,2.85,0,0,1,.94.62,2.91,2.91,0,0,1,.58.94,2.79,2.79,0,0,1,.22,1.16,2.76,2.76,0,0,1-.22,1.14,2.71,2.71,0,0,1-.58.94,3,3,0,0,1-.94.63A3,3,0,0,1,93.8,34Zm0-.72a2,2,0,0,0,.87-.17,2,2,0,0,0,.65-.47,1.8,1.8,0,0,0,.42-.72,2.25,2.25,0,0,0,.16-.85,2.28,2.28,0,0,0-.16-.87,2,2,0,0,0-1.07-1.18,1.84,1.84,0,0,0-.87-.18,2.11,2.11,0,0,0-1.54.65,2,2,0,0,0-.43.71,2.28,2.28,0,0,0-.15.87,2.24,2.24,0,0,0,.15.85,2.09,2.09,0,0,0,.43.72,1.93,1.93,0,0,0,.67.47,1.81,1.81,0,0,0,.87.17Z"/><path class="cls-4" d="M99.38,28.29h2a2,2,0,0,1,.87.15,1.51,1.51,0,0,1,.56.36,1.48,1.48,0,0,1,.27.51,1.53,1.53,0,0,1,.09.54,1.46,1.46,0,0,1-.09.54,2,2,0,0,1-.27.44,1.7,1.7,0,0,1-1,.52l1.61,2.55h-1L101,31.42h-.83V33.9h-.76Zm.76,2.48h1a3.29,3.29,0,0,0,.44-.05,1,1,0,0,0,.38-.13.78.78,0,0,0,.27-.27,1,1,0,0,0,0-.92.69.69,0,0,0-.27-.29,1.89,1.89,0,0,0-.38-.11,3.27,3.27,0,0,0-.44,0h-1Z"/><path class="cls-4" d="M110.56,30.77v2.75a3.45,3.45,0,0,1-.47.22,5.52,5.52,0,0,1-.54.16L109,34a5.06,5.06,0,0,1-.54,0,2.91,2.91,0,0,1-1.27-.25,2.66,2.66,0,0,1-.94-.62,2.91,2.91,0,0,1-.58-.94,3.31,3.31,0,0,1-.2-1.12,3,3,0,0,1,.22-1.16,3.1,3.1,0,0,1,.58-.94,2.85,2.85,0,0,1,.94-.62,2.8,2.8,0,0,1,1.16-.23,3.58,3.58,0,0,1,1.28.2,2.1,2.1,0,0,1,.82.52l-.53.58a2.26,2.26,0,0,0-.74-.45,2.57,2.57,0,0,0-.83-.13,2.29,2.29,0,0,0-.87.18,1.87,1.87,0,0,0-.65.47,1.77,1.77,0,0,0-.42.71,2.28,2.28,0,0,0-.16.87,2.21,2.21,0,0,0,.63,1.59,2.06,2.06,0,0,0,.69.47,2.11,2.11,0,0,0,.85.15,4.42,4.42,0,0,0,.76-.06,2.44,2.44,0,0,0,.63-.23V31.48h-1.26v-.71Z"/><polygon class="cls-4" points="120.66 28.29 121.64 28.29 124.72 32.89 124.74 32.89 124.74 28.29 125.5 28.29 125.5 33.9 124.54 33.9 121.44 29.29 121.42 29.29 121.42 33.9 120.66 33.9 120.66 28.29"/><rect class="cls-4" x="128.52" y="28.29" width="0.76" height="5.61"/><polygon class="cls-4" points="131.83 33.18 135.02 29 131.94 29 131.94 28.29 135.96 28.29 135.96 29 132.79 33.18 136 33.18 136 33.9 131.83 33.9 131.83 33.18"/><polygon class="cls-4" points="138.55 28.29 142.33 28.29 142.33 29 139.31 29 139.31 30.68 142.33 30.68 142.33 31.39 139.31 31.39 139.31 33.18 142.33 33.18 142.33 33.9 138.55 33.9 138.55 28.29"/><path class="cls-4" d="M145,28.29h2a2.07,2.07,0,0,1,.89.15,1.69,1.69,0,0,1,.56.36,1.21,1.21,0,0,1,.27.51,2.18,2.18,0,0,1,.09.54,1.49,1.49,0,0,1-.11.54,1.45,1.45,0,0,1-.27.44,1.53,1.53,0,0,1-.42.34,1.58,1.58,0,0,1-.58.18l1.58,2.55H148l-1.43-2.48h-.85V33.9H145Zm.76,2.48h1a3,3,0,0,0,.42-.05,1,1,0,0,0,.41-.13.75.75,0,0,0,.26-.27.94.94,0,0,0,0-.92.67.67,0,0,0-.26-.29,2,2,0,0,0-.41-.11,3,3,0,0,0-.42,0h-1Z"/><polygon class="cls-4" points="115.96 28.29 115.27 28.29 112.79 33.9 113.68 33.9 115.56 29.27 115.58 29.27 117.46 33.9 118.35 33.9 115.96 28.29"/></g></g></svg>