<svg id="Layer_1" data-name="Layer 1" xmlns="http://www.w3.org/2000/svg" viewBox="0 0 593.33 156.11"><defs><style>.cls-1{fill:#d61f39;}.cls-2{fill:#58b5e0;}.cls-3{fill:#595a5a;}.cls-4{fill:#adadad;}</style></defs><title>logo-mai-baru</title><polygon class="cls-1" points="80.47 67.68 72.76 81.13 80.47 94.58 88.18 81.13 80.47 67.68"/><polygon class="cls-2" points="65.63 136.58 71.94 124.85 72.35 111.48 65.95 123.21 65.63 136.58"/><polygon class="cls-2" points="88.59 50.86 94.91 39.05 95.32 25.68 89 37.49 88.59 50.86"/><polygon class="cls-2" points="51.76 130.92 60.95 121.16 64.8 108.28 55.62 118.04 51.76 130.92"/><polygon class="cls-2" points="96.14 53.98 105.33 44.22 109.18 31.42 100 41.18 96.14 53.98"/><polygon class="cls-2" points="39.87 121.73 51.27 114.76 58.32 103.36 46.92 110.33 39.87 121.73"/><polygon class="cls-2" points="102.62 58.98 114.02 51.93 121.08 40.52 109.67 47.58 102.62 58.98"/><polygon class="cls-2" points="30.76 109.84 43.56 105.98 53.32 96.8 40.44 100.65 30.76 109.84"/><polygon class="cls-2" points="107.62 65.46 120.42 61.61 130.18 52.42 117.39 56.27 107.62 65.46"/><polygon class="cls-2" points="25.02 96.06 38.39 95.65 50.2 89.25 36.75 89.66 25.02 96.06"/><polygon class="cls-2" points="110.74 73.01 124.11 72.68 135.93 66.28 122.55 66.69 110.74 73.01"/><polygon class="cls-2" points="23.05 81.13 36.09 84.25 49.05 81.13 36.09 78.09 23.05 81.13"/><polygon class="cls-2" points="111.81 81.13 124.85 84.25 137.89 81.13 124.85 78.09 111.81 81.13"/><polygon class="cls-2" points="25.02 66.28 36.75 72.68 50.12 73.01 38.39 66.69 25.02 66.28"/><polygon class="cls-2" points="110.74 89.25 122.55 95.65 135.93 96.06 124.11 89.66 110.74 89.25"/><polygon class="cls-2" points="30.68 52.42 40.44 61.61 53.32 65.46 43.56 56.27 30.68 52.42"/><polygon class="cls-2" points="107.62 96.88 117.39 106.07 130.18 109.84 120.42 100.65 107.62 96.88"/><polygon class="cls-2" points="39.87 40.52 46.84 51.93 58.24 58.98 51.27 47.58 39.87 40.52"/><polygon class="cls-2" points="102.62 103.36 109.67 114.76 121.08 121.73 114.02 110.33 102.62 103.36"/><polygon class="cls-2" points="51.76 31.42 55.62 44.22 64.8 53.98 60.95 41.18 51.76 31.42"/><polygon class="cls-2" points="96.14 108.28 100 121.16 109.18 130.92 105.33 118.04 96.14 108.28"/><polygon class="cls-2" points="65.63 25.68 65.95 39.05 72.35 50.86 71.94 37.49 65.63 25.68"/><polygon class="cls-2" points="88.59 111.48 89 124.85 95.32 136.66 94.91 123.21 88.59 111.48"/><polygon class="cls-2" points="80.47 23.71 77.36 36.75 80.47 49.79 83.51 36.75 80.47 23.71"/><polygon class="cls-2" points="80.47 112.55 77.36 125.59 80.47 138.55 83.51 125.59 80.47 112.55"/><polygon class="cls-2" points="111.15 27.97 117.63 20.34 121 10.91 114.52 18.54 111.15 27.97"/><polygon class="cls-2" points="133.63 50.45 143.06 47.09 150.69 40.61 141.34 43.97 133.63 50.45"/><polygon class="cls-2" points="10.17 40.61 17.8 47.09 27.23 50.45 19.61 43.97 10.17 40.61"/><polygon class="cls-2" points="39.87 10.91 43.23 20.34 49.71 27.97 46.35 18.54 39.87 10.91"/><polygon class="cls-2" points="80.47 0 78.67 9.84 80.47 19.69 82.28 9.84 80.47 0"/><polygon class="cls-2" points="49.38 156.11 54.8 147.66 56.93 137.9 51.52 146.34 49.38 156.11"/><polygon class="cls-2" points="16.08 130.51 25.02 126 31.75 118.53 22.8 123.13 16.08 130.51"/><polygon class="cls-2" points="0 91.71 10.01 92.2 19.52 89.17 9.52 88.68 0 91.71"/><polygon class="cls-2" points="141.34 89.17 150.94 92.2 160.94 91.71 151.35 88.68 141.34 89.17"/><polygon class="cls-2" points="129.2 118.53 135.93 126 144.87 130.51 138.14 123.13 129.2 118.53"/><polygon class="cls-2" points="103.93 137.9 106.07 147.74 111.48 156.11 109.35 146.34 103.93 137.9"/><polygon class="cls-3" points="198.6 40.03 204.18 40.03 218.78 73.58 233.3 40.03 238.63 40.03 238.63 80.06 234.94 80.06 234.94 44.79 234.77 44.79 219.51 80.06 217.87 80.06 202.45 44.79 202.29 44.79 202.29 80.06 198.6 80.06 198.6 40.03"/><rect class="cls-3" x="253.48" y="40.03" width="3.69" height="40.03"/><path class="cls-3" d="M273.41,72.68a10,10,0,0,0,3.86,3.77,11.35,11.35,0,0,0,5.33,1.23,10,10,0,0,0,3.53-.57A10.72,10.72,0,0,0,289,75.55a10.92,10.92,0,0,0,1.89-2.46,7.15,7.15,0,0,0,.74-3.28,6.31,6.31,0,0,0-.9-3.45,6.87,6.87,0,0,0-2.38-2.21,17.25,17.25,0,0,0-3.28-1.48c-1.23-.41-2.46-.82-3.77-1.23A30,30,0,0,1,277.51,60a10.9,10.9,0,0,1-3.36-2.05,8.44,8.44,0,0,1-2.3-3.2,11.31,11.31,0,0,1-.9-4.68A9.92,9.92,0,0,1,272,45.28a9.59,9.59,0,0,1,2.79-3.45,13.92,13.92,0,0,1,4.1-2.13,19.27,19.27,0,0,1,4.92-.66,15.09,15.09,0,0,1,6.07,1.15,11.18,11.18,0,0,1,4.76,3.86l-3.2,2.3a9.31,9.31,0,0,0-3.28-3,9.64,9.64,0,0,0-4.51-1,11.66,11.66,0,0,0-3.45.49,10.38,10.38,0,0,0-2.87,1.39,6.75,6.75,0,0,0-1.89,2.38,7,7,0,0,0-.74,3.36,6.72,6.72,0,0,0,1.48,4.59,11.7,11.7,0,0,0,3.86,2.54A49.36,49.36,0,0,0,285,58.82a20.34,20.34,0,0,1,5,1.89A9.72,9.72,0,0,1,293.75,64a9.45,9.45,0,0,1,1.56,5.82,11.34,11.34,0,0,1-1,4.84,11.81,11.81,0,0,1-2.79,3.53,13,13,0,0,1-3.94,2.13,15.58,15.58,0,0,1-4.76.74,17.44,17.44,0,0,1-7.22-1.39A13,13,0,0,1,269.88,75Z"/><polygon class="cls-3" points="308.03 40.03 311.72 40.03 311.72 57.67 312.13 57.67 331.49 40.03 336.65 40.03 316.39 58.32 337.72 80.06 332.39 80.06 312.13 59.39 311.72 59.39 311.72 80.06 308.03 80.06 308.03 40.03"/><polygon class="cls-3" points="394.73 43.48 381.12 43.48 381.12 40.03 412.2 40.03 412.2 43.48 398.51 43.48 398.51 80.06 394.73 80.06 394.73 43.48"/><polygon class="cls-3" points="362.9 40.03 359.05 40.03 341.58 80.06 345.51 80.06 350.03 69.4 362 69.4 362 66.03 351.5 66.03 360.77 44.13 375.54 80.06 379.72 80.06 362.9 40.03"/><polygon class="cls-3" points="478.24 40.03 481.93 40.03 481.93 76.7 500.55 76.7 500.55 80.06 478.24 80.06 478.24 40.03"/><polygon class="cls-3" points="553.22 40.03 558.88 40.03 573.4 73.58 588 40.03 593.33 40.03 593.33 80.06 589.56 80.06 589.56 44.79 589.47 44.79 574.22 80.06 572.58 80.06 557.07 44.79 556.99 44.79 556.99 80.06 553.22 80.06 553.22 40.03"/><polygon class="cls-3" points="451.33 40.03 447.56 40.03 430.09 80.06 433.94 80.06 438.54 69.4 450.51 69.4 450.51 66.03 439.93 66.03 449.28 44.13 464.05 80.06 468.23 80.06 451.33 40.03"/><polygon class="cls-3" points="526.8 40.03 522.95 40.03 505.47 80.06 509.41 80.06 513.92 69.4 525.9 69.4 525.9 66.03 515.4 66.03 524.67 44.13 539.43 80.06 543.62 80.06 526.8 40.03"/><path class="cls-4" d="M198.4,103.69h2.52v21.24H198.4Z"/><path class="cls-4" d="M211.75,103.69h3.18l12.3,17.64h.06V103.69h2.52v21.24h-3.18l-12.3-17.64h-.06v17.64h-2.52Z"/><path class="cls-4" d="M254.89,106h-7v18.9h-2.52V106h-7v-2.34h16.56Z"/><path class="cls-4" d="M263.41,103.69h13.35V106H265.93v6.66H276V115H265.93v7.56H277.3v2.34H263.41Z"/><path class="cls-4" d="M286.75,103.69h5.43c4.11,0,8.46.6,8.46,5.85,0,3.09-2,5.1-5.31,5.61l6,9.78h-3.09l-5.76-9.54h-3.24v9.54h-2.52Zm2.52,9.36h2.25c2.79,0,6.42,0,6.42-3.51,0-3.06-2.67-3.51-5.13-3.51h-3.54Z"/><path class="cls-4" d="M310.63,103.69h3.18l12.3,17.64h.06V103.69h2.52v21.24h-3.18l-12.3-17.64h-.06v17.64h-2.52Z"/><path class="cls-4" d="M376.27,107.44a4.41,4.41,0,0,0-3.87-2c-2.22,0-4.53,1-4.53,3.57,0,1.95,1.08,2.82,4.47,3.9s6.36,2.13,6.36,6.3-3.63,6.21-7.47,6.21c-2.46,0-5.1-.81-6.54-2.94l2.16-1.77a5.15,5.15,0,0,0,4.53,2.37c2.16,0,4.62-1.26,4.62-3.69,0-2.61-1.77-3.06-5.55-4.32-3-1-5.28-2.31-5.28-5.85,0-4.08,3.51-6.12,7.23-6.12a7.29,7.29,0,0,1,5.94,2.49Z"/><path class="cls-4" d="M388.42,103.69h2.52v21.24h-2.52Z"/><path class="cls-4" d="M400.54,114.31a11.1,11.1,0,1,1,11.1,11.16A10.78,10.78,0,0,1,400.54,114.31Zm19.5,0c0-4.89-3.42-8.82-8.4-8.82s-8.4,3.93-8.4,8.82,3.42,8.82,8.4,8.82S420,119.2,420,114.31Z"/><path class="cls-4" d="M432.34,103.69h3.18l12.3,17.64h.06V103.69h2.52v21.24h-3.18l-12.3-17.64h-.06v17.64h-2.52Z"/><path class="cls-4" d="M487.9,103.69h2.52v18.9h9.72v2.34H487.9Z"/><polygon class="cls-4" points="348.79 103.69 346.42 103.69 337.06 124.93 339.91 124.93 342.1 119.71 343.09 117.37 347.5 106.94 347.56 106.94 351.76 117.37 352.72 119.71 354.88 124.93 357.82 124.93 348.79 103.69"/><polygon class="cls-4" points="470.5 103.69 468.13 103.69 458.77 124.93 461.62 124.93 463.81 119.71 464.8 117.37 469.21 106.94 469.27 106.94 473.47 117.37 474.43 119.71 474.43 119.71 476.59 124.93 479.53 124.93 470.5 103.69"/></svg>